<svg xmlns="http://www.w3.org/2000/svg" viewBox="51.8 58.6 578.2 143.9" fill="none" role="img" aria-label="api vault"><path d="m 94.588,95.574 q 9.702,0 17.514,4.662 7.938,4.536 12.474,12.6 4.662,7.938 4.662,17.766 V 158.7 q 0,2.772 -1.89,4.662 -1.764,1.764 -4.536,1.764 -2.772,0 -4.662,-1.764 -1.764,-1.89 -1.764,-4.662 v -4.662 q -4.41,5.418 -10.71,8.442 -6.3,3.024 -13.608,3.024 -9.072,0 -16.506,-4.536 -7.308,-4.536 -11.592,-12.474 -4.158,-8.064 -4.158,-17.892 0,-9.828 4.536,-17.766 4.536,-8.064 12.474,-12.6 8.064,-4.662 17.766,-4.662 z m 0,58.59 q 6.3,0 11.34,-3.024 5.166,-3.15 8.064,-8.442 2.898,-5.418 2.898,-12.096 0,-6.678 -2.898,-12.096 -2.898,-5.418 -8.064,-8.442 -5.04,-3.15 -11.34,-3.15 -6.3,0 -11.466,3.15 -5.04,3.024 -8.064,8.442 -2.898,5.418 -2.898,12.096 0,6.678 2.898,12.096 3.024,5.292 8.064,8.442 5.166,3.024 11.466,3.024 z m 88.4519,-58.59 q 9.702,0 17.64,4.662 8.064,4.536 12.6,12.6 4.536,7.938 4.536,17.766 0,9.828 -4.284,17.892 -4.158,7.938 -11.592,12.474 -7.308,4.536 -16.38,4.536 -7.308,0 -13.608,-3.024 -6.3,-3.024 -10.71,-8.442 v 34.02 q 0,2.898 -1.764,4.662 -1.764,1.764 -4.662,1.764 -2.772,0 -4.662,-1.764 -1.764,-1.764 -1.764,-4.662 v -57.456 q 0,-9.828 4.536,-17.766 4.662,-8.064 12.474,-12.6 7.938,-4.662 17.64,-4.662 z m 0,58.59 q 6.3,0 11.34,-3.024 5.166,-3.15 8.064,-8.442 3.024,-5.418 3.024,-12.096 0,-6.678 -3.024,-12.096 -2.898,-5.418 -8.064,-8.442 -5.04,-3.15 -11.34,-3.15 -6.3,0 -11.466,3.15 -5.04,3.024 -7.938,8.442 -2.898,5.418 -2.898,12.096 0,6.678 2.898,12.096 2.898,5.292 7.938,8.442 5.166,3.024 11.466,3.024 z M 244.65379,165 q -2.772,0 -4.662,-1.764 -1.764,-1.89 -1.764,-4.662 v -56.07 q 0,-2.898 1.764,-4.662 1.89,-1.764 4.662,-1.764 2.898,0 4.662,1.764 1.764,1.764 1.764,4.662 v 56.07 q 0,2.772 -1.764,4.662 -1.764,1.764 -4.662,1.764 z m 0,-80.136 q -3.402,0 -5.922,-2.394 -2.394,-2.52 -2.394,-5.922 0,-3.402 2.394,-5.796 2.52,-2.52 5.922,-2.52 3.402,0 5.796,2.52 2.52,2.394 2.52,5.796 0,3.402 -2.52,5.922 -2.394,2.394 -5.796,2.394 z M 364.9837,96.96 q 1.638,0.756 2.52,2.142 0.882,1.26 0.882,2.898 0,1.134 -0.63,2.394 l -26.712,56.322 q -1.89,4.158 -5.796,4.158 -2.142,0 -3.528,-0.882 -1.386,-1.008 -2.52,-3.276 l -26.712,-56.322 q -0.504,-1.008 -0.504,-2.268 0,-3.402 3.528,-5.166 1.134,-0.63 2.646,-0.63 1.512,0 2.898,0.882 1.386,0.756 2.142,2.268 l 21.924,47.25 21.672,-47.25 q 0.756,-1.512 2.142,-2.268 1.512,-0.882 3.15,-0.882 1.638,0 2.898,0.63 z m 44.73,-1.386 q 9.702,0 17.514,4.662 7.938,4.536 12.474,12.6 4.662,7.938 4.662,17.766 V 158.7 q 0,2.772 -1.89,4.662 -1.764,1.764 -4.536,1.764 -2.772,0 -4.662,-1.764 -1.764,-1.89 -1.764,-4.662 v -4.662 q -4.41,5.418 -10.71,8.442 -6.3,3.024 -13.608,3.024 -9.072,0 -16.506,-4.536 -7.308,-4.536 -11.592,-12.474 -4.158,-8.064 -4.158,-17.892 0,-9.828 4.536,-17.766 4.536,-8.064 12.474,-12.6 8.064,-4.662 17.766,-4.662 z m 0,58.59 q 6.3,0 11.34,-3.024 5.166,-3.15 8.064,-8.442 2.898,-5.418 2.898,-12.096 0,-6.678 -2.898,-12.096 -2.898,-5.418 -8.064,-8.442 -5.04,-3.15 -11.34,-3.15 -6.3,0 -11.466,3.15 -5.04,3.024 -8.064,8.442 -2.898,5.418 -2.898,12.096 0,6.678 2.898,12.096 3.024,5.292 8.064,8.442 5.166,3.024 11.466,3.024 z M 520.3416,95.952 q 2.898,0 4.662,1.764 1.764,1.764 1.764,4.662 v 56.196 q 0,2.772 -1.764,4.662 -1.764,1.764 -4.662,1.764 -2.772,0 -4.662,-1.764 -1.764,-1.89 -1.764,-4.662 v -1.386 q -4.032,4.032 -9.576,6.3 -5.544,2.142 -11.844,2.142 -8.694,0 -15.624,-3.78 -6.93,-3.78 -10.836,-10.962 -3.906,-7.308 -3.906,-17.514 v -30.996 q 0,-2.772 1.764,-4.536 1.89,-1.89 4.662,-1.89 2.772,0 4.536,1.89 1.89,1.764 1.89,4.536 v 30.996 q 0,10.206 5.418,15.498 5.544,5.166 14.616,5.166 5.292,0 9.576,-2.142 4.41,-2.142 6.804,-5.796 2.52,-3.654 2.52,-8.19 v -35.532 q 0,-2.898 1.764,-4.662 1.89,-1.764 4.662,-1.764 z M 565.82748,165 q -5.418,0 -9.828,-2.898 -4.284,-3.024 -6.678,-8.316 -2.394,-5.418 -2.394,-12.096 V 72.894 q 0,-2.772 1.764,-4.536 1.764,-1.764 4.536,-1.764 2.772,0 4.536,1.764 1.764,1.764 1.764,4.536 v 68.796 q 0,4.662 1.764,7.686 1.764,3.024 4.536,3.024 h 3.15 q 2.52,0 4.032,1.764 1.638,1.764 1.638,4.536 0,2.772 -2.394,4.536 -2.394,1.764 -6.174,1.764 z m 50.77793,-12.6 q 2.268,0 3.78,1.764 1.638,1.764 1.638,4.536 0,2.772 -2.142,4.536 -2.016,1.764 -5.292,1.764 h -2.268 q -6.174,0 -11.34,-3.15 -5.04,-3.276 -7.938,-8.82 -2.898,-5.544 -2.898,-12.474 v -31.122 h -5.796 q -2.646,0 -4.284,-1.512 -1.638,-1.512 -1.638,-3.78 0,-2.52 1.638,-4.032 1.638,-1.512 4.284,-1.512 h 5.796 V 80.454 q 0,-2.772 1.764,-4.536 1.764,-1.764 4.536,-1.764 2.772,0 4.536,1.764 1.764,1.764 1.764,4.536 v 18.144 h 10.71 q 2.646,0 4.284,1.512 1.638,1.512 1.638,4.032 0,2.268 -1.638,3.78 -1.638,1.512 -4.284,1.512 h -10.71 v 31.122 q 0,5.04 2.772,8.442 2.772,3.402 6.804,3.402 z" fill="currentColor"/></svg>
